<svg xmlns="http://www.w3.org/2000/svg" viewBox="0 0 24 24" fill="currentColor" class="w-6 h-6">
  <path d="M11.25 4.533A9.707 9.707 0 0 0 6 3a9.735 9.735 0 0 0-3.25.555.75.75 0 0 0-.5.707v1.286a.75.75 0 0 0 .75.75h.008a7.488 7.488 0 0 1 3.01-.555 7.482 7.482 0 0 1 2.25.354.75.75 0 0 0 .671-.021l3.08-2.182a.75.75 0 0 0-.2-1.318Z" />
  <path d="M12.75 21.667A9.707 9.707 0 0 0 18 22.2a9.735 9.735 0 0 0 3.25-.555.75.75 0 0 0 .5-.707v-1.286a.75.75 0 0 0-.75-.75h-.008a7.488 7.488 0 0 1-3.01.555 7.482 7.482 0 0 1-2.25-.354.75.75 0 0 0-.671.021l-3.08 2.182a.75.75 0 0 0 .2 1.318Z" />
  <path d="M12 8.25a3.75 3.75 0 1 0 0 7.5 3.75 3.75 0 0 0 0-7.5ZM10.5 12a1.5 1.5 0 1 1 3 0 1.5 1.5 0 0 1-3 0Z" />
  <path fill-rule="evenodd" d="M3 12a9.75 9.75 0 0 1 9-9.75 9.75 9.75 0 0 1 9 9.75 9.75 9.75 0 0 1-9 9.75A9.75 9.75 0 0 1 3 12Zm9-8.25a8.25 8.25 0 1 0 0 16.5 8.25 8.25 0 0 0 0-16.5Z" clip-rule="evenodd" />
</svg>